<svg width="800" height="480" viewBox="0 0 800 480" xmlns="http://www.w3.org/2000/svg">
  <rect width="800" height="480" fill="#e5edf5"/>
  <rect x="44" y="52" width="712" height="376" rx="24" fill="#1a4268"/>
  <rect x="88" y="96" width="244" height="248" rx="20" fill="#f3f7fb"/>
  <rect x="366" y="104" width="300" height="56" rx="12" fill="#dce7f2"/>
  <rect x="366" y="188" width="308" height="18" rx="9" fill="#9ab6ce"/>
  <rect x="366" y="222" width="274" height="18" rx="9" fill="#9ab6ce"/>
  <rect x="366" y="256" width="334" height="18" rx="9" fill="#9ab6ce"/>
  <rect x="366" y="318" width="146" height="34" rx="17" fill="#dbe8f6"/>
  <circle cx="210" cy="220" r="78" fill="#9db8d0"/>
  <circle cx="210" cy="220" r="48" fill="#1a4268"/>
  <circle cx="210" cy="142" r="10" fill="#f4f7fb"/>
  <circle cx="264" cy="168" r="10" fill="#f4f7fb"/>
  <circle cx="278" cy="226" r="10" fill="#f4f7fb"/>
  <circle cx="240" cy="274" r="10" fill="#f4f7fb"/>
  <circle cx="180" cy="282" r="10" fill="#f4f7fb"/>
  <circle cx="136" cy="242" r="10" fill="#f4f7fb"/>
  <circle cx="138" cy="180" r="10" fill="#f4f7fb"/>
  <circle cx="182" cy="152" r="10" fill="#f4f7fb"/>
</svg>
